<svg xmlns="http://www.w3.org/2000/svg" width="1920" height="100" viewBox="0 0 1920 100">
  <path id="パス_1365" data-name="パス 1365" d="M1920,99.654c-3.854.224-8.066.346-12.722.346-49.86,0-49.86-20.175-99.721-20.175S1757.7,100,1707.84,100s-49.857-20.175-99.714-20.175S1558.268,100,1508.41,100s-49.857-20.175-99.714-20.175S1358.838,100,1308.98,100s-49.855-20.175-99.711-20.175S1159.411,100,1109.554,100s-49.856-20.175-99.713-20.175S959.984,100,910.127,100,860.27,79.825,810.412,79.825,760.555,100,710.7,100s-49.856-20.175-99.713-20.175S561.128,100,511.271,100s-49.857-20.175-99.714-20.175S361.7,100,311.845,100s-49.856-20.175-99.712-20.175S162.277,100,112.421,100,62.565,79.825,12.71,79.825A121.559,121.559,0,0,0,0,80.459V0H1920Z" fill="#f2f2f2"/>
</svg>
