<svg xmlns="http://www.w3.org/2000/svg" width="1920" height="100"><path data-name="パス 1286" d="M1920 .346A219.283 219.283 0 001907.278 0c-49.86 0-49.86 20.175-99.721 20.175S1757.7 0 1707.84 0s-49.857 20.175-99.714 20.175S1558.268 0 1508.41 0s-49.857 20.175-99.714 20.175S1358.838 0 1308.98 0s-49.855 20.175-99.711 20.175S1159.411 0 1109.554 0s-49.856 20.175-99.713 20.175S959.984 0 910.127 0s-49.857 20.175-99.715 20.175S760.555 0 710.7 0s-49.856 20.175-99.713 20.175S561.128 0 511.271 0s-49.857 20.175-99.714 20.175S361.7 0 311.845 0s-49.856 20.175-99.712 20.175S162.277 0 112.421 0 62.565 20.175 12.71 20.175A121.56 121.56 0 010 19.541V100h1920z" fill="#f2f2f2"/></svg>