<svg xmlns="http://www.w3.org/2000/svg" width="40" height="40"><defs><linearGradient id="a" y1=".5" x2="1" y2=".5" gradientUnits="objectBoundingBox"><stop offset="0" stop-color="#5da71e"/><stop offset="1" stop-color="#ffc400"/></linearGradient></defs><path data-name="合体 54" d="M-309.142-4010.858A19.869 19.869 0 01-315-4025a19.87 19.87 0 015.858-14.142A19.868 19.868 0 01-295-4045a19.871 19.871 0 0114.143 5.857A19.869 19.869 0 01-275-4025a19.868 19.868 0 01-5.857 14.142A19.872 19.872 0 01-295-4005a19.869 19.869 0 01-14.142-5.858zm-4.04-14.142A18.2 18.2 0 00-295-4006.818 18.2 18.2 0 00-276.818-4025 18.2 18.2 0 00-295-4043.182 18.2 18.2 0 00-313.182-4025zm19.423 6.35l4.584-5.349H-302v-2h12.827l-4.585-5.35 1.519-1.3 6.558 7.651-6.558 7.65z" transform="translate(315 4045)" fill="url(#a)"/></svg>