<svg xmlns="http://www.w3.org/2000/svg" width="396.62" height="59"><g data-name="グループ 201" fill="#fff"><g data-name="グループ 22"><path data-name="パス 7" d="M96.649 41.494c-6 0-12.674-2.679-12.674-9.633 0-5.877 4.8-8.7 9.6-8.7 5.55 0 10.125 3.013 10.087 10.079H90.467c.825 2.6 3.674 3.942 7.35 3.942a27.989 27.989 0 003.712-.26l.187 4.276a44.287 44.287 0 01-5.062.3m-6.3-11.976h6.824c-.15-1.19-1.162-2.529-3.374-2.529-1.912 0-3.075.781-3.45 2.529"/><path data-name="長方形 12" d="M105.538 29.704h8.512v3.756h-8.512z"/><path data-name="パス 8" d="M142.474 40.825V30.56c0-1.9-1.312-2.864-3.112-2.864a3.989 3.989 0 00-3.3 1.822v11.307h-6.112V30.56c0-1.9-1.312-2.864-3.112-2.864a4.059 4.059 0 00-3.3 1.785v11.344h-6.108V23.791h5.7v1.489a8.78 8.78 0 015.775-2.12c2.7 0 4.875.968 6.037 2.566a9.065 9.065 0 016.487-2.566c4.613 0 7.162 2.6 7.162 6.435v11.23z"/><path data-name="パス 9" d="M164.225 41.494c-6 0-12.674-2.679-12.674-9.633 0-5.877 4.8-8.7 9.6-8.7 5.55 0 10.125 3.013 10.087 10.079h-13.2c.825 2.6 3.675 3.942 7.35 3.942a27.989 27.989 0 003.712-.26l.187 4.276a44.266 44.266 0 01-5.062.3m-6.3-11.976h6.824c-.15-1.19-1.162-2.529-3.374-2.529-1.912 0-3.075.781-3.45 2.529"/><path data-name="パス 10" d="M187.399 40.825V30.708c0-1.71-1.049-3.012-3.375-3.012a4.207 4.207 0 00-3.412 1.784v11.345h-6.113V23.791h5.7v1.451a8.873 8.873 0 015.925-2.084c4.574 0 7.424 2.64 7.424 6.695v10.972z"/><path data-name="パス 11" d="M208.438 41.383c-7.313 0-10.237-3.459-10.237-9.336v-3.793h-2.625v-4.463h2.625v-4.725l6.112-1.562v6.286h4.125v4.463h-4.125v3.98c0 3.087 1.312 4.5 4.274 4.5z"/><path data-name="パス 12" d="M222.986 41.494c-6 0-12.674-2.679-12.674-9.633 0-5.877 4.8-8.7 9.6-8.7 5.55 0 10.125 3.013 10.087 10.079h-13.2c.825 2.6 3.674 3.942 7.35 3.942a27.989 27.989 0 003.712-.26l.187 4.276a44.287 44.287 0 01-5.062.3m-6.3-11.976h6.824c-.15-1.19-1.162-2.529-3.374-2.529-1.912 0-3.075.781-3.45 2.529"/></g><path data-name="パス 135" d="M35.069 45.4H25.5l-5.595-9.454h10.906l5.9-12.9H19.906L25.5 13.6h9.307L42.947 0H17.454L0 29.5 17.454 59h25.755z"/><path data-name="パス 136" d="M52.271.077l-8.093 13.521 9.408 15.894-9.41 15.9h-.008l8.1 13.523 17.405-29.423z"/><path data-name="パス 1285" d="M267.06 22.96a53.423 53.423 0 01-10.1 1.52 8.955 8.955 0 01.74 2.32 57.455 57.455 0 0011.26-1.58zm-.3 8.86a44.965 44.965 0 002.7-4.7l-2.74-.96a25.347 25.347 0 01-2.22 4.76zm-2.5-1.66a13.219 13.219 0 00-.84-3.62l-2.4.44a13.5 13.5 0 01.68 3.68zm-3.48.64a16.966 16.966 0 00-1.24-3.78l-2.3.58a17.75 17.75 0 011.08 3.9zm-4.16.5l-1.4.36v-2.44h1.6v-2.66h-1.6v-3.64h-2.66v3.64h-1.88v2.66h1.88v3.08c-.82.18-1.58.36-2.22.48l.6 2.78 1.62-.44v3.8c0 .26-.08.32-.32.32a13.89 13.89 0 01-1.54-.02 10.239 10.239 0 01.72 2.7 5.164 5.164 0 002.92-.56c.68-.44.88-1.18.88-2.44V34.4c.6-.16 1.18-.32 1.76-.5zm12.62 4.18v-2.5h-4.68v-1.96h-2.74v1.96h-4.48v2.5h3.02a12.055 12.055 0 01-4.4 3.52 12.094 12.094 0 011.92 2.24 13.232 13.232 0 003.94-3.62v4.12h2.74v-3.96a13.083 13.083 0 003.32 3.32 10.83 10.83 0 011.9-2.16 11.627 11.627 0 01-3.92-3.46zm14-2.02v-1.98h3.56v1.98zm-6.22 0q.06-1.05.06-1.98h3.22v1.98zm3.28-6.5v1.82h-3.22v-1.82zm6.5 1.82h-3.56v-1.82h3.56zm2.9-4.58h-15.5v7.14c0 2.82-.16 6.42-2.34 8.8a11.66 11.66 0 012.3 1.88 11.357 11.357 0 002.54-5.82h3.6v5.42h2.94V36.2h3.56v2.4c0 .34-.14.46-.5.46s-1.66.02-2.64-.06a10.318 10.318 0 01.92 2.78 8.909 8.909 0 003.94-.5c.88-.44 1.18-1.2 1.18-2.64zm13.48 12.82v-.56h5.3v.56zm5.3-3.18v.62h-5.3v-.62zm2.74-2.08H300.5v10.18h2.68v-2.96h5.3v.22c0 .24-.1.32-.36.32s-1.22.02-1.92-.04a9.995 9.995 0 01.76 2.46 7.434 7.434 0 003.22-.42c.82-.38 1.04-1.06 1.04-2.26zm-10.8-5.04v.78c-.18-.42-.36-.88-.56-1.32h4.46v.54zm6.78 2.44v-.54h4.04v-1.9h-4.04v-.54h4.62v-2.02h-4.62V22.9h-2.88v1.26h-4.48v1.98l-.28-.62-1.14.48v-3.1h-2.62v4.24l-1.8-.22a28.371 28.371 0 01-.78 5.3l2.08.72a25.956 25.956 0 00.5-2.96V41.9h2.62V27.82a15.267 15.267 0 01.48 1.46l1.52-.72v.06h3.9v.54h-5.1v2.04h13.24v-2.04zm13.86 3.22h-2.58l.58-.16a8.438 8.438 0 00-.56-1.88h2.56c-.16.62-.38 1.34-.58 1.88zm.04-5.48h2.44v-2.38h-2.44v-1.54h-2.68v1.54h-2.72v2.38h2.72v1.02h-3.44v2.42h1.84l-.64.16a11.172 11.172 0 01.56 1.88h-1.28v2.42h2.96V36h-2.8v2.42h2.8v3.42h2.68v-3.42h2.64V36h-2.64v-1.2h2.84v-2.42h-1.24c.24-.54.5-1.18.82-1.88l-.66-.16h1.4v-2.42h-3.16zm6 7.6a20.151 20.151 0 001.46 3.26 11.409 11.409 0 01-1.46 1.64zm3.56-1.58a13.781 13.781 0 01-.72 2.28 12.915 12.915 0 01-1-2.28zm1.26-2.38l-.46.1h-4.36v-4.42h3.38v1.16c0 .22-.1.26-.4.28-.28 0-1.42 0-2.24-.04a9.677 9.677 0 01.78 2.48 8.852 8.852 0 003.42-.4c.88-.38 1.12-1.08 1.12-2.26V23.7h-8.68v18.18h2.62v-1.32a8.214 8.214 0 011.2 1.38 11.383 11.383 0 001.9-1.9 10.546 10.546 0 002.22 1.9 10.391 10.391 0 011.88-2.28 9.322 9.322 0 01-2.6-2 21.522 21.522 0 001.94-6.5zm19.36.82v-.64h1.08c1.14 0 1.84 0 2.4.06v-3.2a12.839 12.839 0 01-2.42.16h-1.06v-1.88a16.027 16.027 0 01.14-1.98h-3.44a13.052 13.052 0 01.12 1.98v1.88h-4.2V26.1a15.577 15.577 0 01.14-2.02h-3.44a17.407 17.407 0 01.14 2v1.66h-1.44a11.833 11.833 0 01-2.26-.22v3.28c.58-.04 1.18-.08 2.26-.08h1.44v2.42a19.52 19.52 0 01-.12 2.26H344c-.04-.5-.1-1.28-.1-2.26v-2.42h4.2v.72c0 4.52-1.62 6.26-5.62 7.58l2.6 2.44c4.98-2.18 6.2-5.36 6.2-10.1zm7.2.56l1.5 3.06a39.713 39.713 0 006.76-2.7v5.86a27 27 0 01-.16 2.9h3.84a14.936 14.936 0 01-.2-2.9v-7.88a38.491 38.491 0 005.34-4.28l-2.62-2.5a26.9 26.9 0 01-5.72 4.92 31.7 31.7 0 01-8.74 3.52zM385.02 38a22.453 22.453 0 01-.24 3.02h3.8c-.1-.9-.22-2.48-.22-3.02v-5.14a62.375 62.375 0 016.88 2.86l1.38-3.38a66.123 66.123 0 00-8.26-3.02v-2.74a23.778 23.778 0 01.2-2.6h-3.78a13.972 13.972 0 01.24 2.6z"/></g></svg>