<svg xmlns="http://www.w3.org/2000/svg" width="230" height="59"><g fill="#fff"><g data-name="グループ 22"><path data-name="パス 7" d="M96.649 41.494c-6 0-12.674-2.679-12.674-9.633 0-5.877 4.8-8.7 9.6-8.7 5.55 0 10.125 3.013 10.087 10.079H90.467c.825 2.6 3.674 3.942 7.35 3.942a27.989 27.989 0 003.712-.26l.187 4.276a44.287 44.287 0 01-5.062.3m-6.3-11.976h6.824c-.15-1.19-1.162-2.529-3.374-2.529-1.912 0-3.075.781-3.45 2.529"/><path data-name="長方形 12" d="M105.538 29.704h8.512v3.756h-8.512z"/><path data-name="パス 8" d="M142.474 40.825V30.56c0-1.9-1.312-2.864-3.112-2.864a3.989 3.989 0 00-3.3 1.822v11.307h-6.112V30.56c0-1.9-1.312-2.864-3.112-2.864a4.059 4.059 0 00-3.3 1.785v11.344h-6.108V23.791h5.7v1.489a8.78 8.78 0 015.775-2.12c2.7 0 4.875.968 6.037 2.566a9.065 9.065 0 016.487-2.566c4.613 0 7.162 2.6 7.162 6.435v11.23z"/><path data-name="パス 9" d="M164.225 41.494c-6 0-12.674-2.679-12.674-9.633 0-5.877 4.8-8.7 9.6-8.7 5.55 0 10.125 3.013 10.087 10.079h-13.2c.825 2.6 3.675 3.942 7.35 3.942a27.989 27.989 0 003.712-.26l.187 4.276a44.266 44.266 0 01-5.062.3m-6.3-11.976h6.824c-.15-1.19-1.162-2.529-3.374-2.529-1.912 0-3.075.781-3.45 2.529"/><path data-name="パス 10" d="M187.399 40.825V30.708c0-1.71-1.049-3.012-3.375-3.012a4.207 4.207 0 00-3.412 1.784v11.345h-6.113V23.791h5.7v1.451a8.873 8.873 0 015.925-2.084c4.574 0 7.424 2.64 7.424 6.695v10.972z"/><path data-name="パス 11" d="M208.438 41.383c-7.313 0-10.237-3.459-10.237-9.336v-3.793h-2.625v-4.463h2.625v-4.725l6.112-1.562v6.286h4.125v4.463h-4.125v3.98c0 3.087 1.312 4.5 4.274 4.5z"/><path data-name="パス 12" d="M222.986 41.494c-6 0-12.674-2.679-12.674-9.633 0-5.877 4.8-8.7 9.6-8.7 5.55 0 10.125 3.013 10.087 10.079h-13.2c.825 2.6 3.674 3.942 7.35 3.942a27.989 27.989 0 003.712-.26l.187 4.276a44.287 44.287 0 01-5.062.3m-6.3-11.976h6.824c-.15-1.19-1.162-2.529-3.374-2.529-1.912 0-3.075.781-3.45 2.529"/></g><path data-name="パス 135" d="M35.069 45.4H25.5l-5.595-9.454h10.906l5.9-12.9H19.906L25.5 13.6h9.307L42.947 0H17.454L0 29.5 17.454 59h25.755z"/><path data-name="パス 136" d="M52.271.077l-8.093 13.521 9.408 15.894-9.41 15.9h-.008l8.1 13.523 17.405-29.423z"/></g></svg>